<svg xmlns="http://www.w3.org/2000/svg" viewBox="0 0 192 192" role="img" aria-label="Collectibles Log icon">
  <defs>
    <linearGradient id="grad" x1="0%" y1="0%" x2="100%" y2="100%">
      <stop offset="0%" stop-color="#2563eb" />
      <stop offset="100%" stop-color="#0ea5e9" />
    </linearGradient>
  </defs>
  <rect x="8" y="8" width="176" height="176" rx="24" fill="url(#grad)" />
  <rect x="36" y="48" width="120" height="96" rx="16" fill="#f8fafc" opacity="0.95" />
  <path d="M52 72h88v12H52z" fill="#1e3a8a" opacity="0.9" />
  <rect x="60" y="96" width="32" height="28" rx="6" fill="#22c55e" opacity="0.9" />
  <rect x="100" y="96" width="32" height="28" rx="6" fill="#f59e0b" opacity="0.9" />
  <circle cx="96" cy="144" r="10" fill="#0f172a" opacity="0.9" />
  <path d="M96 58c10 0 18-8 18-18 0-2-.6-4-1.4-6-4.4 9.6-11.3 14-20.6 14-6.6 0-12.6-2.8-16.8-7.8C75 50.6 84.2 58 96 58Z" fill="#bfdbfe" />
</svg>
